<svg xmlns="http://www.w3.org/2000/svg" viewBox="0 0 295.24 295.24"><defs><style>.cls-1{fill:#f4f4f4;}.cls-2{fill:#252525;stroke:#f4f4f4;stroke-miterlimit:10;stroke-width:2px;}</style></defs><title>brand</title><g id="Layer_2" data-name="Layer 2"><rect class="cls-1" width="295.24" height="295.24"/></g><g id="Layer_1" data-name="Layer 1"><path class="cls-2" d="M233.24,50.12,215,63.79l-18.37,42.84H181.82L176,94.06h3.79a12.53,12.53,0,0,0,12.57-12.51V68.91h6.29V50.06H179.81V68.91h6.29V81.54a6.24,6.24,0,0,1-6.29,6.23h-6.69l-8-17.38,9.62-4.8L143.2,52.1,135.79,78a28.28,28.28,0,1,0-44,23.87v4.74H84.2l-.49,2.58a70.73,70.73,0,0,0-.42,24.19L61.84,171.61,85.52,177v39.61H117v28.29h75.43v-43.8a81.91,81.91,0,0,0,34.55-67.28V122.37a73,73,0,0,0-1.2-13.14l-.47-2.61h-6.17l14.14-33.88V50.12ZM186.09,62.69V56.4h6.29v6.29Zm-11.2,43.94H163l-5.71-12.57h11.83ZM147.28,60.69,159.77,66l-2.95,1.45,9.37,20.28H154.4L146.74,71l-2.81,1.42Zm8.79,45.93h-14V100.4a6.34,6.34,0,0,1,6.29-6.35h2Zm-12.34-27.1,3.81,8.39a12.55,12.55,0,0,0-11.73,12.49v6.23H123.24v-4.74a28.4,28.4,0,0,0,12-18.12ZM85.52,78.4a22,22,0,1,1,33,19l-1.57.9v8.29h-6.29V87.25a9.43,9.43,0,1,0-6.29,0v19.38H98.09V98.34l-1.57-.91A22.08,22.08,0,0,1,85.52,78.4Zm22,3.14a3.14,3.14,0,1,1,3.14-3.14A3.15,3.15,0,0,1,107.52,81.54ZM220,112.91a66,66,0,0,1,.69,9.43v11.49a76.53,76.53,0,0,1-33.19,63.06l-1.38.94v40.79H123.24V210.34H91.81V172l-20.37-4.65,18.4-32.8-.18-1.12a64.84,64.84,0,0,1-.22-20.52H220Zm-7.69-6.29h-8.85L219.1,70.1l7,3.47ZM227,67l-3.48-1.74,3.48-2.6Z"/><path class="cls-2" d="M113.81,131.77c-5.2,0-9.43-3.14-9.43-9.43H98.09c0,9.43,7,15.71,15.71,15.71s15.71-6.29,15.71-15.71h-6.29C123.24,128.63,119,131.77,113.81,131.77Z"/></g></svg>