<?xml version="1.0" encoding="utf-8"?>
<!-- Generator: Adobe Illustrator 21.0.2, SVG Export Plug-In . SVG Version: 6.00 Build 0)  -->
<svg version="1.1" id="Layer_1" xmlns="http://www.w3.org/2000/svg" xmlns:xlink="http://www.w3.org/1999/xlink" x="0px" y="0px"
	 viewBox="0 0 350 350" style="enable-background:new 0 0 350 350;" xml:space="preserve">
<style type="text/css">
	.st0{fill:#E0E0E0;}
</style>
<g>
	<g>
		<g>
			<path class="st0" d="M279.5,116.9c0.9-5.5,1.5-11,1.5-16.5C281,45.1,236,0,180.6,0h-78.1C47.1,0,2,45.1,2,100.5
				c0,28.6,12.2,55.7,33.5,74.8v63.1l33.9-19c3.7,52,47.1,93.2,100.1,93.2h78.1c0.1,0,0.3,0,0.4,0l66.6,37.5v-63.1
				c21.3-19.1,33.5-46.2,33.5-74.8C348,167.9,319.3,130.3,279.5,116.9z M69.2,206.4c0,0.1,0,0.2-0.1,0.2l-22.6,12.7v-49.1l-2-1.7
				c-20-17-31.5-41.8-31.5-68c0-49.2,40.1-89.3,89.3-89.3h78.1c49.2,0,89.3,40.1,89.3,89.3c0,4.4-0.4,9-1.1,13.5
				c-6.9-1.5-14-2.3-21.3-2.3h-67h-11.2H52.2v11.2h71.4C92.8,138.7,71.3,169.9,69.2,206.4z M305.3,280.1l-2,1.7v49.1l-52.7-29.6
				l-1.5,0c-0.4,0-0.7,0-1.6,0.1h-78.1c-49.2,0-89.3-40.1-89.3-89.3s40.1-89.3,89.3-89.3h11.2h67c49.2,0,89.3,40.1,89.3,89.3
				C336.9,238.3,325.4,263.1,305.3,280.1z"/>
			<path class="st0" d="M228.6,222.9c14.6-8.1,24.6-23.7,24.6-41.5c0-26.2-21.3-47.4-47.4-47.4s-47.4,21.3-47.4,47.4
				c0,17.9,9.9,33.4,24.6,41.5c-17.8,8.6-30.2,26.7-30.2,47.8v19.5h106v-19.5C258.7,249.7,246.4,231.5,228.6,222.9z M169.4,181.4
				c0-20,16.3-36.3,36.3-36.3s36.3,16.3,36.3,36.3s-16.3,36.3-36.3,36.3S169.4,201.4,169.4,181.4z M247.6,279.1h-83.7v-8.4
				c0-23.1,18.8-41.9,41.9-41.9s41.9,18.8,41.9,41.9L247.6,279.1L247.6,279.1z"/>
			<circle class="st0" cx="191.7" cy="167.4" r="5.6"/>
			<circle class="st0" cx="219.7" cy="167.4" r="5.6"/>
			<path class="st0" d="M232.3,193.1l-8.9-6.7c-4.3,5.7-10.8,8.9-17.7,8.9c-7,0-13.4-3.3-17.7-8.9l-8.9,6.7
				c6.4,8.5,16.1,13.4,26.7,13.4C216.2,206.5,225.9,201.6,232.3,193.1z"/>
			<rect x="52.2" y="44.6" class="st0" width="178.6" height="11.2"/>
			<rect x="52.2" y="78.1" class="st0" width="178.6" height="11.2"/>
		</g>
	</g>
</g>
</svg>
