<svg id="Layer_1" data-name="Layer 1" xmlns="http://www.w3.org/2000/svg" viewBox="0 0 400 400"><defs><style>.cls-1,.cls-2{fill:#e0e0e0;}.cls-1{opacity:0.1;}.cls-2{opacity:0.3;}.cls-3{fill:none;stroke:#e0e0e0;stroke-linecap:round;stroke-linejoin:round;stroke-width:3px;}</style></defs><title>Artboard 1</title><path class="cls-1" d="M390,390V180.34S232.41,262.17,232.41,302.5C232.5,302.83,390,390,390,390Z"/><path class="cls-2" d="M232.41,302.5l-64.83,1L10,390H390Z"/><path class="cls-1" d="M168,302.5c0-40.33-157.59-122.16-157.59-122.16V390S167.91,302.83,168,302.5Z"/><polygon class="cls-3" points="10 181.02 10 389.15 10 390 10.85 390 386.99 390 389.15 390 390 390 390 389.15 390 181.02 390 180.34 10 180.34 10 181.02"/><path class="cls-3" d="M212.19,14.8a17.91,17.91,0,0,0-24.39,0L10,180.34H390Z"/><path class="cls-3" d="M390,390V180.34S232.41,262.17,232.41,302.5C232.5,302.83,390,390,390,390Z"/><path class="cls-3" d="M232.41,302.5l-64.83,1L10,390H390Z"/><path class="cls-3" d="M168,302.5c0-40.33-157.59-122.16-157.59-122.16V390S167.91,302.83,168,302.5Z"/></svg>