<svg xmlns="http://www.w3.org/2000/svg" viewBox="0 0 295.24 295.24"><defs><style>.cls-1{fill:#f4f4f4;}.cls-2{fill:#252525;stroke:#f4f4f4;stroke-miterlimit:10;stroke-width:2px;}</style></defs><title>graphic</title><g id="Layer_2" data-name="Layer 2"><rect class="cls-1" width="295.24" height="295.24"/></g><g id="Layer_1" data-name="Layer 1"><path class="cls-2" d="M236,100.48H207.15a9.33,9.33,0,0,0,.58-3.14,9.44,9.44,0,0,0-9.43-9.43h-3.14V59.62a9.44,9.44,0,0,0-9.43-9.43H110.3a9.44,9.44,0,0,0-9.43,9.43V84.76a3.15,3.15,0,0,1-3.14,3.14H69.45V81.62A9.44,9.44,0,0,0,60,72.19H50.59V109.9H60a9.44,9.44,0,0,0,9.43-9.43V94.19H97.73a9.44,9.44,0,0,0,9.43-9.43V59.62a3.15,3.15,0,0,1,3.14-3.14h75.43a3.15,3.15,0,0,1,3.14,3.14V87.9h-3.14a9.44,9.44,0,0,0-9.43,9.43,9.33,9.33,0,0,0,.58,3.14H148a9.44,9.44,0,0,0-9.43,9.43H77.77L58.13,125.62l19.64,15.71h60.82v6.29H91.65l-26.7-3.34L49.71,163.33l15.24,19.05L91.65,179h46.95v9.43h-88v47.14H161.78a53.38,53.38,0,0,0,83.67-44V109.9A9.44,9.44,0,0,0,236,100.48Zm-172.86,0A3.15,3.15,0,0,1,60,103.62H56.88V78.48H60a3.15,3.15,0,0,1,3.14,3.14Zm12.57,31.17-7.54-6,7.54-6Zm62.86,3.4H82v-6.29h56.57V135Zm0-12.57H82v-6.29h56.57v6.29ZM88.3,173.15l-20.65,2.56-7.39-9.24h3.47a9.42,9.42,0,1,0,0-6.29H60.27L67.66,151l20.65,2.58Zm-18.86-9.82a3.14,3.14,0,1,1,3.14,3.14A3.15,3.15,0,0,1,69.45,163.33Zm69.14,9.43H107.16V153.9h-6.29v18.86H94.59V153.88l44,0v18.86Zm47.14-78.57H198.3a3.14,3.14,0,0,1,0,6.29H185.73a3.14,3.14,0,0,1,0-6.29ZM56.88,229.33V194.76h6.29v9.43h6.29v-9.43h6.29v12.57H82V194.76H88.3v9.43h6.29v-9.43h6.29v12.57h6.29V194.76h6.29v9.43h6.29v-9.43H126v12.57h6.29V194.76h6.45a53.25,53.25,0,0,0,15.46,34.57Zm182.29-37.72a47.14,47.14,0,1,1-94.29,0V144.47h94.29Zm0-53.43h-44V113h-6.29v25.14h-44V109.9a3.15,3.15,0,0,1,3.14-3.14h88a3.15,3.15,0,0,1,3.14,3.14Z"/></g></svg>