<svg xmlns="http://www.w3.org/2000/svg" viewBox="0 0 295.24 295.24"><defs><style>.cls-1{fill:#f4f4f4;}.cls-2{fill:#252525;stroke:#f4f4f4;stroke-miterlimit:10;stroke-width:2px;}</style></defs><title>print</title><g id="Layer_2" data-name="Layer 2"><rect class="cls-1" width="295.24" height="295.24"/></g><g id="Layer_1" data-name="Layer 1"><path class="cls-2" d="M232.48,84.76H62.76A12.58,12.58,0,0,0,50.19,97.33V197.91a12.58,12.58,0,0,0,12.57,12.57H232.48A12.58,12.58,0,0,0,245,197.91V97.33A12.58,12.58,0,0,0,232.48,84.76ZM150.76,91h81.71a6.29,6.29,0,0,1,6.29,6.29v66.58a9.33,9.33,0,0,0-3.14-.58h-3.14V118l-20.7-20.7H157v66h-6.29V91Zm12.57,91.14h62.86v9.43H163.33v-9.43Zm-3.14-6.29v-6.29h25.14v6.29Zm3.14-12.57V103.62h44v18.86h18.86v40.86Zm50.29-47.14v-8.13l8.13,8.13Zm-69.14,75.43H69V155.36l4.8,18.4a9.54,9.54,0,0,0,9.21,7.1,9.36,9.36,0,0,0,2.28-.28L123.43,171a9.37,9.37,0,0,0,6.79-11.45l-14.61-56h28.86v63.27l-4.1,2.73h-8.48v6.29h8.48l4.1,2.73Zm-34-82.89,10.36,39.7-44.19,11-10.36-39.7Zm-45.77,5-.43-1.64a3.08,3.08,0,0,1,2.23-3.76l22.85-5.71,15.24-3.81a3.14,3.14,0,0,1,.74-.09,3.27,3.27,0,0,1,3.14,2.4l.41,1.58Zm41.87,44.78,15.85-4,1.74,6.67a3.08,3.08,0,0,1-2.23,3.76l-12.71,3.18a7.78,7.78,0,0,0-2.65-9.65Zm-2.93,6.43a1.57,1.57,0,1,1-1.57-1.57A1.57,1.57,0,0,1,103.62,164.9Zm-6.34,6.2-13.47,3.37a3.26,3.26,0,0,1-3.88-2.3l-1.73-6.61,16.88-4.22a7.69,7.69,0,0,0,2.2,9.76Zm47.2-73.77H113.64A9.51,9.51,0,0,0,103,92.67L84.38,97.33H69A6.27,6.27,0,0,0,62.82,103a9.29,9.29,0,0,0-4.66,10.59l4.6,17.63v60.36A6.29,6.29,0,0,0,69,197.9h75.43v6.29H62.76a6.29,6.29,0,0,1-6.29-6.29V97.33A6.29,6.29,0,0,1,62.76,91h81.71Zm7.24,72.29h2.19v6.29h-2.19L147,172.76Zm87,28.29a6.29,6.29,0,0,1-6.29,6.29H150.76v-22H157V197.9h75.43V182.19h3.14a9.33,9.33,0,0,0,3.14-.58Zm-3.14-22h-44v-6.29h44a3.14,3.14,0,0,1,0,6.29Z"/></g></svg>