<svg xmlns="http://www.w3.org/2000/svg" viewBox="0 0 295.24 295.24"><defs><style>.cls-1{fill:#f4f4f4;}.cls-2{fill:#252525;stroke:#f4f4f4;stroke-miterlimit:10;stroke-width:2px;}</style></defs><title>ux</title><g id="Layer_2" data-name="Layer 2"><rect class="cls-1" width="295.24" height="295.24"/></g><g id="Layer_1" data-name="Layer 1"><path class="cls-2" d="M201.38,131.9v9.43H167.55l-16.46-8.23V122.48h4.71a7.83,7.83,0,0,0,4.71-14.1V105a18.64,18.64,0,0,0,6.29-14,18.86,18.86,0,0,0-37.71,0,18.64,18.64,0,0,0,6.29,14v3.34a7.83,7.83,0,0,0,4.71,14.1h4.71v10.63l-22.74,11.37,22.74,11.37v10.63H75.67V157H94.52V131.9h-44V157H69.38v25.14H50.52v25.14h44V182.19H75.67v-9.43h69.14v9.43H126v25.14h18.86V219.9h-6.29a12.57,12.57,0,0,0,0,25.14h18.86a12.57,12.57,0,1,0,0-25.14H151.1V207.33H170V182.19H151.1V155.85l16.46-8.23h33.83V157h18.86v25.59a12.57,12.57,0,1,0,6.29,0V157h18.86V131.9ZM88.24,188.48V201H56.81V188.48ZM56.81,150.76V138.19H88.24v12.57ZM148,78.48A12.53,12.53,0,0,1,155.49,101l-1.25.94v4.78H151.1V99.9a9.43,9.43,0,1,0-6.29,0v6.86h-3.14V102l-1.25-.94a12.45,12.45,0,0,1-5-10A12.58,12.58,0,0,1,148,78.48ZM151.1,91A3.14,3.14,0,1,1,148,87.9,3.15,3.15,0,0,1,151.1,91Zm-11,25.14a1.57,1.57,0,0,1,0-3.14h15.71a1.57,1.57,0,0,1,0,3.14Zm17.29,110a6.29,6.29,0,1,1,0,12.57H138.53a6.29,6.29,0,1,1,0-12.57Zm6.29-37.71V201H132.24V188.48ZM148,150.39l-11.83-5.91L148,138.56l11.83,5.91Zm81.71,44.37a6.29,6.29,0,1,1-6.29-6.29A6.29,6.29,0,0,1,229.67,194.76Zm9.43-44H207.67V138.19H239.1Z"/><path class="cls-2" d="M107.1,69a9.42,9.42,0,0,0,8.85-6.29h12.19a34.56,34.56,0,0,0-14.6,25.14H107.1v18.86H126V87.9h-6.1a28.27,28.27,0,0,1,56.2,0H170v18.86h18.86V87.9h-6.45a34.55,34.55,0,0,0-14.6-25.14H180a9.43,9.43,0,1,0,0-6.29h-64A9.41,9.41,0,1,0,107.1,69Zm12.57,31.43h-6.29V94.19h6.29Zm56.57-6.29h6.29v6.29h-6.29Zm12.57-37.71a3.14,3.14,0,1,1-3.14,3.14A3.15,3.15,0,0,1,188.81,56.48Zm-81.71,0A3.14,3.14,0,1,1,104,59.62,3.15,3.15,0,0,1,107.1,56.48Z"/></g></svg>