<svg xmlns="http://www.w3.org/2000/svg" viewBox="0 0 295.24 295.24"><defs><style>.cls-1{fill:#f4f4f4;}.cls-2{fill:#252525;stroke:#f4f4f4;stroke-miterlimit:10;stroke-width:2px;}</style></defs><title>visual</title><g id="Layer_2" data-name="Layer 2"><rect class="cls-1" width="295.24" height="295.24"/></g><g id="Layer_1" data-name="Layer 1"><path class="cls-2" d="M229.33,106.76H191.62V87.9a9.43,9.43,0,1,0-18.86,0v18.86H78.48a15.73,15.73,0,0,0-15.71,15.71v50.29H59.62a3.15,3.15,0,0,1-3.14-3.14V87.9a3.15,3.15,0,0,1,3.14-3.14h88A9.44,9.44,0,0,0,157,75.33V50.19h-6.29V75.33a3.15,3.15,0,0,1-3.14,3.14h-88a9.44,9.44,0,0,0-9.43,9.43v81.71A9.44,9.44,0,0,0,59.62,179h3.14v50.29A15.73,15.73,0,0,0,78.48,245H229.33A15.73,15.73,0,0,0,245,229.33V122.48A15.73,15.73,0,0,0,229.33,106.76ZM179,87.9a3.14,3.14,0,1,1,6.29,0v53.43H179V87.9Zm0,59.71h6.29v37.71H179Zm6.29,44v2.19l-3.14,4.71L179,193.81v-2.19ZM179,205.14v8.48h6.29v-8.48l6.29-9.43v-67H223V223H106.76V128.76h66v67ZM78.48,113h94.29v9.43H69A9.44,9.44,0,0,1,78.48,113ZM69,175.9h0V128.76h31.43v47.12a15.72,15.72,0,1,0,0,.05V223H69Zm25.14,0a9.43,9.43,0,1,1-9.43-9.43A9.44,9.44,0,0,1,94.19,175.9Zm144.57,53.43a9.44,9.44,0,0,1-9.43,9.43H78.48A9.44,9.44,0,0,1,69,229.33H229.33V122.48H191.62V113h37.71a9.44,9.44,0,0,1,9.43,9.43Z"/><circle class="cls-2" cx="84.76" cy="175.9" r="3.14"/><rect class="cls-2" x="75.33" y="147.62" width="18.86" height="6.29"/><rect class="cls-2" x="75.33" y="135.05" width="18.86" height="6.29"/><rect class="cls-2" x="75.33" y="210.48" width="18.86" height="6.29"/><rect class="cls-2" x="75.33" y="197.9" width="18.86" height="6.29"/></g></svg>