<?xml version="1.0" encoding="utf-8"?>
<!-- Generator: Adobe Illustrator 21.0.2, SVG Export Plug-In . SVG Version: 6.00 Build 0)  -->
<svg version="1.1" id="Layer_1" xmlns="http://www.w3.org/2000/svg" xmlns:xlink="http://www.w3.org/1999/xlink" x="0px" y="0px"
	 viewBox="0 0 496 496" style="enable-background:new 0 0 496 496;" xml:space="preserve">
<style type="text/css">
	.st0{fill:#FFFFFF;}
</style>
<g>
	<g>
		<g>
			<path class="st0" d="M457.8,157.7c3.9-11.9,6.2-24.5,6.2-37.7C464,53.8,410.2,0,344,0c-36.3,0-68.8,16.2-90.8,41.8l-5.2-3
				L0,179.3V496h496V179.3L457.8,157.7z M344,16c57.3,0,104,46.7,104,104s-46.7,104-104,104c-18.5,0-36.8-5-52.9-14.6l-3-1.8
				l-44.5,12.7l12.7-44.5l-1.8-3C245,156.8,240,138.5,240,120C240,62.7,286.7,16,344,16z M238.8,62.4C229.4,79.5,224,99.2,224,120
				c0,20.2,5.2,40.2,15.1,58l-18.7,65.6l65.6-18.7c17.8,9.9,37.8,15.1,58,15.1c47.3,0,88.1-27.6,107.7-67.4l21.9,12.4L248,357.9
				L22.5,185L238.8,62.4z M16,200.2l165.5,126.9L16,470.5V200.2z M29.4,480l165-143l53.6,41.1l53.6-41.1l165,143H29.4z M480,470.5
				L314.5,327.1L480,200.2V470.5z"/>
			<path class="st0" d="M325.2,206c6.3,1.3,12.6,2,18.8,2c12.1,0,24.1-2.5,35.2-7.4l-6.4-14.7c-13.9,6.1-29.2,7.6-44.3,4.4
				c-28.6-6-50.9-29.5-55.5-58.4c-3.6-22.4,3.1-44.6,18.3-61c15.2-16.4,36.9-24.6,59.2-22.7c32.7,2.9,59.9,28.5,64.7,60.9
				c1.2,7.9,1.1,15.9-0.3,23.6c-2,11.2-11.9,19.3-23.6,19.3c-4,0-7.3-3.3-7.3-7.3V112c0-22.1-17.9-40-40-40s-40,17.9-40,40v16
				c0,22.1,17.9,40,40,40h24v-16h-24c-13.2,0-24-10.8-24-24v-16c0-13.2,10.8-24,24-24s24,10.8,24,24v32.7
				c0,12.8,10.4,23.3,23.3,23.3c19.4,0,35.9-13.6,39.3-32.4c1.7-9.4,1.8-19.1,0.4-28.8c-5.9-39.6-39.1-70.9-79.1-74.5
				c-27.4-2.4-53.7,7.7-72.3,27.7c-18.6,20-26.8,47.1-22.4,74.5C262.8,169.9,290.2,198.6,325.2,206z"/>
			<rect x="240" y="400" class="st0" width="16" height="16"/>
			<rect x="272" y="400" class="st0" width="16" height="16"/>
			<rect x="208" y="400" class="st0" width="16" height="16"/>
		</g>
	</g>
</g>
</svg>
